<svg viewBox="0 0 32 32" width="16" height="16" xmlns="http://www.w3.org/2000/svg">
  <line x1="15.92" y1="16" x2="28.92" y2="16" stroke="#80858B" strokeWidth="1" strokeLinecap="round" strokeLinejoin="round"/>
  <path d="M23.93,25v3h-16V4h16V7h2V3a1,1,0,0,0-1-1h-18a1,1,0,0,0-1,1V29a1,1,0,0,0,1,1h18a1,1,0,0,0,1-1V25Z" fill="none" stroke="#80858B" strokeWidth="1"/>
  <line x1="28.92" y1="16" x2="24.92" y2="20" stroke="#80858B" strokeWidth="1" strokeLinecap="round"/>
  <line x1="28.92" y1="16" x2="24.92" y2="12" stroke="#80858B" strokeWidth="1" strokeLinecap="round"/>
  <line x1="24.92" y1="8.09" x2="24.92" y2="6.09" stroke="#80858B" strokeWidth="1" strokeLinecap="round"/>
  <line x1="24.92" y1="26" x2="24.92" y2="24" stroke="#80858B" strokeWidth="1" strokeLinecap="round"/>
</svg>
